inDegrees=yes
name=ik_OpenSim_Sub02_CSBaseline_Orientations
DataType=double
version=3
OpenSimVersion=4.4-2022-07-23-0e9fedc
endheader
time	pelvis_tilt	pelvis_list	pelvis_rotation	pelvis_tx	pelvis_ty	pelvis_tz	hip_flexion_r	hip_adduction_r	hip_rotation_r	knee_angle_r	knee_angle_r_beta	ankle_angle_r	hip_flexion_l	hip_adduction_l	hip_rotation_l	knee_angle_l	knee_angle_l_beta	ankle_angle_l
20	1.014746916048584	0.294943185527991	-26.1500390653466	0	0.93	0	-1.720673494305321	4.959463377174536	-1.342824464053337	0.08384948400040572	0.001463449571905386	3.100346012233921	14.49418005138704	3.296598576258182	-0.5378482880416612	26.21373396434219	0.4575159669196371	-5.371067880224194
20.01	0.899019655710689	0.3638176797407862	-26.15478082031732	0	0.93	0	-1.940295239918532	4.993768301935506	-1.372474511204452	0.07934672995921691	0.001384861688479161	3.383437408498933	14.3319803683382	4.114947518257405	-0.7158156833236982	23.06978438539867	0.4026436952503832	-5.924688050090737
20.02	0.7894487846704182	0.4172590979819348	-26.14709800999741	0	0.93	0	-2.20551472723223	5.058440117994098	-1.35976240620754	0.07692343009050397	0.001342567127006974	3.76732059695743	14.11957805228913	4.937503363060877	-0.811305213783563	19.83018106625097	0.3461019508727193	-6.578479556522167
20.03	0.6808241085303129	0.4777728637963922	-26.13685423958445	0	0.93	0	-2.477564283834677	5.126477138278807	-1.304534523843393	0.07557598624041639	0.001319049795337197	4.140306890619523	13.90834066527531	5.794126618423426	-0.8119351188341205	16.60801932191937	0.289864619402329	-7.263311787802438
20.04	0.5659187837899994	0.5430462069285426	-26.1226362558391	0	0.93	0	-2.746334353306138	5.194567927732742	-1.231737034302242	0.07530331427800636	0.001314290771815268	4.511523576903058	13.70312510565176	6.66595268973377	-0.6907393778657733	13.47590992407577	0.2351989978773012	-7.853329978973236
20.05	0.4512903625592975	0.6051452413459288	-26.1071785617437	0	0.93	0	-3.010775742830007	5.263679089244403	-1.168586122968389	0.07501915901870074	0.001309331326953526	4.858466462423285	13.51899208558619	7.512226185358982	-0.4290721832809545	10.50083053011621	0.1832740669444693	-8.315191305123909
20.06	0.3251132993866904	0.655668642108978	-26.0890851682454	0	0.93	0	-3.280295655654834	5.342952670008239	-1.127052737867413	0.07445431611014759	0.001299472958442733	5.214534118829473	13.37754098268082	8.296460411126523	-0.01969985415828748	7.730742489578373	0.134926910066966	-8.586786238079664
20.07	0.2158255400694674	0.6993113472166745	-26.05597704185092	0	0.93	0	-3.580090747402618	5.412668404898636	-1.128005899696504	0.07424047514130526	0.001295740729460779	5.582575075803625	13.2742070245372	9.009032580904606	0.5523121906352543	5.211454411089228	0.09095703829108912	-8.717625128665636
20.08	0.1135929595539475	0.7357690667653832	-26.03098283039367	0	0.93	0	-3.877831119937066	5.485307772680118	-1.140240899143962	0.07399303340185122	0.001291422056400444	5.923338779158329	13.2198983833508	9.642108642049124	1.246925673292287	2.948970946416227	0.05146925256061644	-8.694180106998544
20.09	0.002954114303002554	0.7535364434221871	-26.00249442466147	0	0.93	0	-4.158312033104236	5.579118401394565	-1.195086090808028	0.07377036230147069	0.001287535712549765	6.24146046336659	13.33117072562169	10.17653164474304	2.026017544862212	1.09887249774183	0.01917894314520888	-8.516178078999095
20.1	-0.1129645277698136	0.7628500552229331	-25.98752907768694	0	0.93	0	-4.442429469052048	5.673769682137789	-1.259805549160206	0.07381224020201328	0.001288266619798056	6.552703126211545	13.93253804165326	10.58738185855318	2.653290165952883	0.2879569277836821	0.005025796493752791	-7.861231911054984
20.11	-0.1967214831989192	0.7832805718124963	-25.96486569537694	0	0.93	0	-4.749078451373544	5.749457761032787	-1.359739790292431	0.07377329947382252	0.001287586975878003	6.860450965040116	14.82066252719385	10.9423300080034	3.225981537381717	0.1374471211772006	0.002398904811929775	-7.010906541804314
20.12	-0.2759351502985324	0.7929745505092534	-25.94610194602011	0	0.93	0	-5.054083593554358	5.839270916436047	-1.470008382737628	0.07471818517517843	0.00130407834242168	7.154762516885969	15.71238591155171	11.23102871972616	3.861509108420121	0.09132438065541335	0.00159391112978158	-6.227638990024316
20.13	-0.3453036212179268	0.8009709631185126	-25.94538420302488	0	0.93	0	-5.381279863281981	5.917340252422136	-1.569572583433434	0.07595937083102605	0.001325741118744746	7.456306697615424	16.57742033617482	11.40870259612935	4.576858602906897	0.06985719112745152	0.001219237991368999	-5.583165616580761
20.14	-0.3824173309706201	0.8218952444617066	-25.96494661234735	0	0.93	0	-5.742438298606133	5.971273748169159	-1.644476475882883	0.07820513107032201	0.001364937029130836	7.771088620689239	17.38369075446792	11.5398014493843	5.426119138327906	0.05704081934338892	0.0009955501055774066	-5.096591255239164
20.15	-0.4324909445563522	0.8326805402611559	-25.99872094389898	0	0.93	0	-6.092839732487606	6.033595796798561	-1.707115104610104	0.07966602717694846	0.001390434476221034	8.0483564876029	18.12676206730059	11.59258034212563	6.451093809537078	0.04945009913701896	0.0008630670453785875	-4.713155004346346
20.16	-0.473538636694661	0.8390922792085539	-26.02983556555882	0	0.93	0	-6.456335973395509	6.102430278903816	-1.778813961010005	0.08249897919879982	0.00143987881655337	8.316941502665664	18.8060601118666	11.64844366371749	7.598817700344174	0.04392371679809272	0.0007666134778402593	-4.456579295869921
20.17	-0.5296930375809747	0.8487202831597151	-26.05011443711951	0	0.93	0	-6.786917115535395	6.171542045959247	-1.858325911708346	0.08531399259418343	0.001489010068790559	8.516774297309777	19.39534276127437	11.750248285336	8.822176082168575	0.03983010303491723	0.0006951664393678916	-4.257362820634376
20.18	-0.5619541978912836	0.8817166818978404	-26.11255727033747	0	0.93	0	-7.172412315504142	6.196142791218195	-1.894711577914762	0.0895466250286987	0.001562883440799554	8.81707147445673	19.82666126762268	11.81304189135872	10.01290130486701	0.03690931923645489	0.0006441891453458174	-3.953043699694342
20.19	-0.6053991588259138	0.9113522262367511	-26.16917511709566	0	0.93	0	-7.496818166197959	6.22292535695055	-1.945619142500234	0.09305568644318149	0.001624128116136968	8.996210467223769	20.06539142282452	11.82273503646114	11.05027457932018	0.03510704572266844	0.0006127335385087562	-3.459275109887013
